<?xml version="1.0" encoding="UTF-8"?>
<!DOCTYPE svg PUBLIC "-//W3C//DTD SVG 1.1//EN" "http://www.w3.org/Graphics/SVG/1.1/DTD/svg11.dtd">
<!-- Creator: CorelDRAW 2019 (64-Bit) -->
<svg xmlns="http://www.w3.org/2000/svg" xml:space="preserve" width="4.31275in" height="0.526319in" version="1.1" style="shape-rendering:geometricPrecision; text-rendering:geometricPrecision; image-rendering:optimizeQuality; fill-rule:evenodd; clip-rule:evenodd"
viewBox="0 0 4312.32 526.27"
 xmlns:xlink="http://www.w3.org/1999/xlink"
 xmlns:xodm="http://www.corel.com/coreldraw/odm/2003">
 <defs>
  <style type="text/css">
   <![CDATA[
    .fil0 {fill:black;fill-rule:nonzero}
    .fil1 {fill:#49CE55;fill-rule:nonzero}
   ]]>
  </style>
 </defs>
 <g id="Layer_x0020_1">
  <metadata id="CorelCorpID_0Corel-Layer"/>
  <g id="_2285570933328">
   <path class="fil0" d="M1845.17 1.24l-258.57 510.7 0 0 129.64 0 0 -0 53 -111.02 282.92 0 54.44 111.02 0 0 128.21 0 0 -0 -262.87 -510.7 -126.78 0zm-29.37 302.27l0 0 92.4 -194.11 95.26 194.11 0 0 -187.66 0c0,0 0,-0 0,-0zm-666.98 -199.84l0 0 80.93 0 0 0 0 408.27 0 0 123.2 0 0 -0 0 -408.27 191.96 0 0 -102.43 -498.52 0c0,56.57 45.86,102.43 102.43,102.43zm2776 303.7l0 0 0 -100.99 214.16 0c55.78,0 101,-45.22 101,-100.99l-315.16 0 0 -103.14 372.46 0 0 -100.99 -487.78 0 0 510.7 0 0 502.82 0 0 -0 0 -104.57 0 -0 -387.5 0zm-422.81 -159.01l0 0c36.28,-6.68 62.91,-18.27 79.86,-34.74 16.94,-16.47 25.43,-41.18 25.43,-74.13l0 -4.3c0,-51.09 -20.9,-86.19 -62.67,-105.29 -41.79,-19.09 -104.93,-28.65 -189.45,-28.65l-282.93 0 0 510.7 0 0 287.94 0c56.34,0 103.73,-4.66 142.18,-13.97 38.43,-9.31 67.69,-24.71 87.74,-46.2 10.03,-10.5 17.55,-23.16 22.56,-37.96 5.02,-14.79 7.52,-31.52 7.52,-50.14l0 -2.87c0,-35.81 -9.44,-62.07 -28.29,-78.79 -18.87,-16.71 -48.83,-27.94 -89.89,-33.67zm-313.01 -152.57l0 0 173.34 0c30.55,0 55.03,1.07 73.42,3.22 18.38,2.15 31.87,6.81 40.47,13.97 4.3,3.83 7.52,8.72 9.67,14.68 2.15,5.98 3.22,13.01 3.22,21.13l0 2.87c0,15.29 -5.14,26.63 -15.4,34.02 -10.27,7.41 -24.47,12.3 -42.61,14.68 -9.56,0.96 -19.59,1.68 -30.09,2.15 -10.51,0.48 -21.97,0.72 -34.38,0.72l-177.64 0 0 -107.44zm308.71 260.01l0 0c0,14.81 -4.07,26.27 -12.18,34.38 -8.13,8.13 -23.17,13.61 -45.13,16.47 -10.99,1.92 -24.35,3.22 -40.11,3.94 -15.75,0.72 -34.14,1.07 -55.15,1.07l-156.15 0 0 -115.32 164.74 0c37.24,0 66.36,1.32 87.39,3.94 21.01,2.63 35.56,8 43.69,16.11 4.3,3.83 7.52,8.84 9.67,15.04 2.15,6.21 3.22,13.37 3.22,21.49l0 2.87zm-741.82 -129.65l0 0c0,46.81 -5.37,83.7 -16.11,110.67 -10.75,26.98 -27.11,45.96 -49.07,56.94 -10.99,5.73 -23.28,10.03 -36.89,12.89 -13.61,2.87 -28.77,4.3 -45.48,4.3 -32.95,0 -60.65,-5.84 -83.09,-17.55 -22.45,-11.7 -39.39,-30.91 -50.86,-57.66 -5.73,-13.36 -10.03,-29.25 -12.89,-47.63 -2.87,-18.38 -4.29,-39.04 -4.29,-61.96l0 -98.85c0,-69.62 -56.44,-126.06 -126.06,-126.06l0 228.49c0,71.63 10.5,129.18 31.51,172.62 21.01,43.46 52.05,74.97 93.12,94.55 20.53,9.55 43.34,16.83 68.41,21.84 25.06,5.02 52.64,7.52 82.72,7.52 57.31,0 106.48,-9.79 147.55,-29.36 41.07,-19.58 72.58,-51.09 94.55,-94.55 10.98,-21.96 19.21,-47.27 24.71,-75.93 5.48,-28.65 8.24,-60.89 8.24,-96.7l0 -228.49 -126.06 0 0 224.91z"/>
   <g>
    <path class="fil1" d="M623.21 0l-224.27 0c-50.43,0 -91.31,40.88 -91.31,91.31l0 193.22c0,24.63 -19.96,44.59 -44.59,44.59l0 -237.81c0,-50.43 -40.88,-91.31 -91.3,-91.31 -27.69,0 -52.48,12.35 -69.22,31.81l-0.01 -0.03c-0.08,0.1 -0.15,0.19 -0.22,0.3 -2.33,2.73 -4.51,5.59 -6.51,8.57 -21.16,26.55 -37.66,32.15 -95.79,32.15l0 22.16c48.14,0 76.9,16.5 80.44,68.12l0 72.29c0,32.8 5.43,64.33 15.44,93.74 39.02,114.66 147.6,197.15 275.46,197.15 152.62,0 277.78,-117.54 289.91,-267.04l-219.74 0 0 -21.86c0,-12.55 10.18,-22.73 22.73,-22.73l170.89 0c44.47,0 80.52,-36.05 80.52,-80.52l-274.15 0 0 -21.86c0,-12.55 10.18,-22.73 22.73,-22.73l189.39 0c49.44,0 89.52,-40.08 89.52,-89.53l-119.95 0z"/>
   </g>
  </g>
 </g>
</svg>
